<svg xmlns="http://www.w3.org/2000/svg" viewBox="0 -0.5 192 192" shape-rendering="crispEdges">
<metadata>Made with Pixels to Svg https://codepen.io/shshaw/pen/XbxvNj</metadata>
<path stroke="#c0dfff" d="M0 0h192M0 1h192M0 2h192M0 3h104M107 3h85M0 4h104M107 4h85M0 5h104M107 5h85M0 6h104M107 6h85M0 7h104M107 7h85M0 8h104M107 8h85M0 9h104M107 9h85M0 10h104M107 10h85M0 11h104M107 11h85M0 12h104M107 12h85M0 13h104M107 13h85M0 14h104M107 14h85M0 15h104M107 15h85M0 16h104M107 16h85M0 17h104M107 17h85M0 18h104M107 18h85M0 19h104M107 19h85M0 20h104M107 20h85M0 21h101M110 21h82M0 22h101M110 22h82M0 23h101M110 23h82M0 24h83M86 24h15M110 24h82M0 25h83M86 25h15M110 25h82M0 26h83M86 26h15M110 26h82M0 27h83M86 27h15M110 27h82M0 28h83M86 28h15M110 28h82M0 29h83M86 29h15M110 29h82M0 30h83M86 30h15M110 30h82M0 31h83M86 31h15M110 31h82M0 32h83M86 32h15M110 32h82M0 33h83M86 33h15M110 33h82M0 34h83M86 34h15M110 34h82M0 35h83M86 35h15M110 35h82M0 36h80M89 36h12M110 36h82M0 37h80M89 37h12M110 37h82M0 38h80M89 38h12M110 38h82M0 39h80M89 39h12M110 39h82M0 40h80M89 40h12M110 40h82M0 41h80M89 41h12M110 41h82M0 42h80M89 42h12M110 42h82M0 43h80M89 43h12M110 43h82M0 44h80M89 44h12M110 44h82M0 45h80M89 45h9M113 45h79M0 46h80M89 46h9M113 46h79M0 47h80M89 47h9M113 47h79M0 48h77M92 48h6M113 48h79M0 49h77M92 49h6M113 49h79M0 50h77M92 50h6M113 50h79M0 51h77M92 51h6M113 51h79M0 52h77M92 52h6M113 52h79M0 53h77M92 53h6M113 53h79M0 54h77M92 54h3M116 54h76M0 55h77M92 55h3M116 55h76M0 56h77M92 56h3M116 56h76M0 57h56M59 57h18M92 57h3M116 57h76M0 58h56M59 58h18M92 58h3M116 58h76M0 59h56M59 59h18M92 59h3M116 59h76M0 60h56M59 60h18M92 60h3M116 60h76M0 61h56M59 61h18M92 61h3M116 61h76M0 62h56M59 62h18M92 62h3M116 62h76M0 63h56M59 63h18M119 63h73M0 64h56M59 64h18M119 64h73M0 65h56M59 65h18M119 65h73M0 66h56M59 66h21M89 66h3M119 66h73M0 67h56M59 67h21M89 67h3M119 67h73M0 68h56M59 68h21M89 68h3M119 68h73M0 69h56M59 69h21M119 69h73M0 70h56M59 70h21M119 70h73M0 71h56M59 71h21M119 71h73M0 72h56M59 72h21M116 72h76M0 73h56M59 73h21M116 73h76M0 74h56M59 74h21M116 74h76M0 75h56M59 75h24M89 75h6M116 75h76M0 76h56M59 76h24M89 76h6M116 76h76M0 77h56M59 77h24M89 77h6M116 77h76M0 78h53M62 78h21M86 78h9M116 78h76M0 79h53M62 79h21M86 79h9M116 79h76M0 80h53M62 80h21M86 80h9M116 80h76M0 81h53M62 81h21M86 81h12M113 81h79M0 82h53M62 82h21M86 82h12M113 82h79M0 83h53M62 83h21M86 83h12M113 83h79M0 84h53M62 84h21M86 84h12M113 84h24M140 84h52M0 85h53M62 85h21M86 85h12M113 85h24M140 85h52M0 86h53M62 86h21M86 86h12M113 86h24M140 86h52M0 87h53M62 87h21M86 87h9M116 87h21M140 87h52M0 88h53M62 88h21M86 88h9M116 88h21M140 88h52M0 89h53M62 89h21M86 89h9M116 89h21M140 89h52M0 90h53M62 90h33M116 90h21M140 90h52M0 91h53M62 91h33M116 91h21M140 91h52M0 92h53M62 92h33M116 92h21M140 92h52M0 93h50M65 93h30M116 93h21M140 93h52M0 94h50M65 94h30M116 94h21M140 94h52M0 95h50M65 95h30M116 95h21M140 95h52M0 96h50M65 96h27M119 96h18M140 96h52M0 97h50M65 97h27M119 97h18M140 97h52M0 98h50M65 98h27M119 98h18M140 98h52M0 99h35M38 99h12M65 99h27M119 99h15M143 99h49M0 100h35M38 100h12M65 100h27M119 100h15M143 100h49M0 101h35M38 101h12M65 101h27M119 101h15M143 101h49M0 102h35M38 102h12M65 102h3M71 102h3M77 102h3M83 102h3M89 102h3M119 102h15M143 102h49M0 103h35M38 103h12M65 103h3M71 103h3M77 103h3M83 103h3M89 103h3M119 103h15M143 103h49M0 104h35M38 104h12M65 104h3M71 104h3M77 104h3M83 104h3M89 104h3M119 104h15M143 104h49M0 105h35M38 105h12M119 105h15M143 105h49M0 106h35M38 106h12M119 106h15M143 106h49M0 107h35M38 107h12M119 107h15M143 107h49M0 108h35M38 108h9M71 108h15M119 108h15M143 108h49M0 109h35M38 109h9M71 109h15M119 109h15M143 109h49M0 110h35M38 110h9M71 110h15M119 110h15M143 110h49M0 111h35M38 111h9M68 111h21M119 111h12M146 111h46M0 112h35M38 112h9M68 112h21M119 112h12M146 112h46M0 113h35M38 113h9M68 113h21M119 113h12M146 113h46M0 114h35M38 114h9M119 114h12M146 114h46M0 115h35M38 115h9M119 115h12M146 115h46M0 116h35M38 116h9M119 116h12M146 116h46M0 117h32M41 117h6M74 117h12M119 117h12M146 117h46M0 118h32M41 118h6M74 118h12M119 118h12M146 118h46M0 119h32M41 119h6M74 119h12M119 119h12M146 119h46M0 120h32M41 120h9M68 120h21M149 120h43M0 121h32M41 121h9M68 121h21M149 121h43M0 122h32M41 122h9M68 122h21M149 122h43M0 123h32M41 123h9M68 123h21M149 123h43M0 124h32M41 124h9M68 124h21M149 124h43M0 125h32M41 125h9M68 125h21M149 125h43M0 126h32M41 126h9M68 126h21M125 126h3M149 126h43M0 127h32M41 127h9M68 127h21M125 127h3M149 127h43M0 128h32M41 128h9M68 128h21M125 128h3M149 128h43M0 129h32M41 129h3M68 129h21M152 129h40M0 130h32M41 130h3M68 130h21M152 130h40M0 131h32M41 131h3M68 131h21M152 131h40M0 132h29M44 132h3M68 132h18M125 132h3M149 132h43M0 133h29M44 133h3M68 133h18M125 133h3M149 133h43M0 134h29M44 134h3M68 134h18M125 134h3M149 134h43M0 135h29M44 135h6M68 135h18M125 135h3M149 135h43M0 136h29M44 136h6M68 136h18M125 136h3M149 136h43M0 137h29M44 137h6M68 137h18M125 137h3M149 137h43M0 138h29M44 138h3M74 138h12M125 138h3M149 138h43M0 139h29M44 139h3M74 139h12M125 139h3M149 139h43M0 140h29M44 140h3M74 140h12M125 140h3M149 140h43M0 141h26M80 141h6M128 141h3M146 141h46M0 142h26M80 142h6M128 142h3M146 142h46M0 143h26M80 143h6M128 143h3M146 143h46M0 144h29M44 144h3M80 144h6M146 144h46M0 145h29M44 145h3M80 145h6M146 145h46M0 146h29M44 146h3M80 146h6M146 146h46M0 147h29M44 147h3M83 147h3M146 147h21M170 147h22M0 148h29M44 148h3M83 148h3M146 148h21M170 148h22M0 149h29M44 149h3M83 149h3M146 149h21M170 149h22M0 150h29M44 150h3M83 150h3M149 150h15M167 150h25M0 151h29M44 151h3M83 151h3M149 151h15M167 151h25M0 152h29M44 152h3M83 152h3M149 152h15M167 152h25M0 153h29M44 153h3M152 153h9M167 153h25M0 154h29M44 154h3M152 154h9M167 154h25M0 155h29M44 155h3M152 155h9M167 155h25M0 156h29M44 156h3M152 156h6M167 156h25M0 157h29M44 157h3M152 157h6M167 157h25M0 158h29M44 158h3M152 158h6M167 158h25M0 159h29M44 159h3M155 159h3M167 159h25M0 160h29M44 160h3M155 160h3M167 160h25M0 161h29M44 161h3M155 161h3M167 161h25M0 162h29M170 162h22M0 163h29M170 163h22M0 164h29M170 164h22M0 165h26M170 165h22M0 166h26M170 166h22M0 167h26M170 167h22M0 168h17M176 168h16M0 169h17M176 169h16M0 170h17M176 170h16M0 171h14M182 171h10M0 172h14M182 172h10M0 173h14M182 173h10M0 174h11M185 174h7M0 175h11M185 175h7M0 176h11M185 176h7M0 177h8M185 177h7M0 178h8M185 178h7M0 179h8M185 179h7M0 180h8M185 180h7M0 181h8M185 181h7M0 182h8M185 182h7M0 183h8M185 183h7M0 184h8M185 184h7M0 185h8M185 185h7M0 186h8M188 186h4M0 187h8M188 187h4M0 188h8M188 188h4M0 189h8M188 189h4M0 190h8M188 190h4M0 191h8M188 191h4" />
<path stroke="#666666" d="M104 3h3M104 4h3M104 5h3M104 6h3M104 7h3M104 8h3M104 9h3M104 10h3M104 11h3M104 12h3M104 13h3M104 14h3M104 15h3M104 16h3M104 17h3M104 18h3M104 19h3M104 20h3M101 21h9M101 22h9M101 23h9M83 24h3M101 24h9M83 25h3M101 25h9M83 26h3M101 26h9M83 27h3M101 27h6M83 28h3M101 28h6M83 29h3M101 29h6M83 30h3M101 30h3M83 31h3M101 31h3M83 32h3M101 32h3M83 33h3M101 33h3M83 34h3M101 34h3M83 35h3M101 35h3M80 36h3M101 36h3M80 37h3M101 37h3M80 38h3M101 38h3M80 39h3M101 39h3M80 40h3M101 40h3M80 41h3M101 41h3M80 42h3M101 42h3M80 43h3M101 43h3M80 44h3M101 44h3M80 45h3M98 45h3M80 46h3M98 46h3M80 47h3M98 47h3M77 48h3M98 48h3M77 49h3M98 49h3M77 50h3M98 50h3M77 51h6M98 51h3M77 52h6M98 52h3M77 53h6M98 53h3M77 54h3M95 54h6M77 55h3M95 55h6M77 56h3M95 56h6M56 57h3M77 57h6M95 57h6M56 58h3M77 58h6M95 58h6M56 59h3M77 59h6M95 59h6M56 60h3M77 60h6M95 60h6M56 61h3M77 61h6M95 61h6M56 62h3M77 62h6M95 62h6M56 63h3M80 63h3M92 63h9M56 64h3M80 64h3M92 64h9M56 65h3M80 65h3M92 65h9M56 66h3M92 66h9M56 67h3M92 67h9M56 68h3M92 68h9M56 69h3M92 69h3M56 70h3M92 70h3M56 71h3M92 71h3M56 72h3M98 72h6M56 73h3M98 73h6M56 74h3M98 74h6M56 75h3M95 75h6M56 76h3M95 76h6M56 77h3M95 77h6M53 78h9M95 78h6M53 79h9M95 79h6M53 80h9M95 80h6M53 81h9M98 81h3M53 82h9M98 82h3M53 83h9M98 83h3M53 84h3M59 84h3M98 84h3M137 84h3M53 85h3M59 85h3M98 85h3M137 85h3M53 86h3M59 86h3M98 86h3M137 86h3M53 87h3M95 87h3M137 87h3M53 88h3M95 88h3M137 88h3M53 89h3M95 89h3M137 89h3M53 90h3M95 90h6M137 90h3M53 91h3M95 91h6M137 91h3M53 92h3M95 92h6M137 92h3M50 93h3M95 93h6M137 93h3M50 94h3M95 94h6M137 94h3M50 95h3M95 95h6M137 95h3M50 96h3M92 96h6M137 96h3M50 97h3M92 97h6M137 97h3M50 98h3M92 98h6M137 98h3M35 99h3M50 99h3M92 99h6M134 99h6M35 100h3M50 100h3M92 100h6M134 100h6M35 101h3M50 101h3M92 101h6M134 101h6M35 102h3M50 102h3M92 102h3M134 102h3M35 103h3M50 103h3M92 103h3M134 103h3M35 104h3M50 104h3M92 104h3M134 104h3M35 105h3M50 105h3M92 105h3M134 105h6M35 106h3M50 106h3M92 106h3M134 106h6M35 107h3M50 107h3M92 107h3M134 107h6M35 108h3M47 108h6M92 108h3M134 108h3M35 109h3M47 109h6M92 109h3M134 109h3M35 110h3M47 110h6M92 110h3M134 110h3M35 111h3M47 111h6M92 111h6M131 111h6M35 112h3M47 112h6M92 112h6M131 112h6M35 113h3M47 113h6M92 113h6M131 113h6M35 114h3M47 114h6M92 114h6M131 114h9M35 115h3M47 115h6M92 115h6M131 115h9M35 116h3M47 116h6M92 116h6M131 116h9M32 117h9M47 117h3M92 117h6M131 117h6M32 118h9M47 118h3M92 118h6M131 118h6M32 119h9M47 119h3M92 119h6M131 119h6M32 120h3M38 120h3M50 120h6M92 120h3M32 121h3M38 121h3M50 121h6M92 121h3M32 122h3M38 122h3M50 122h6M92 122h3M32 123h3M38 123h3M50 123h3M89 123h9M128 123h6M32 124h3M38 124h3M50 124h3M89 124h9M128 124h6M32 125h3M38 125h3M50 125h3M89 125h9M128 125h6M32 126h3M50 126h3M89 126h9M128 126h6M32 127h3M50 127h3M89 127h9M128 127h6M32 128h3M50 128h3M89 128h9M128 128h6M32 129h3M44 129h3M50 129h3M89 129h6M125 129h6M32 130h3M44 130h3M50 130h3M89 130h6M125 130h6M32 131h3M44 131h3M50 131h3M89 131h6M125 131h6M29 132h6M50 132h3M86 132h9M128 132h6M29 133h6M50 133h3M86 133h9M128 133h6M29 134h6M50 134h3M86 134h9M128 134h6M29 135h3M50 135h6M86 135h9M128 135h9M29 136h3M50 136h6M86 136h9M128 136h9M29 137h3M50 137h6M86 137h9M128 137h9M29 138h6M47 138h9M62 138h3M68 138h3M86 138h6M128 138h9M29 139h6M47 139h9M62 139h3M68 139h3M86 139h6M128 139h9M29 140h6M47 140h9M62 140h3M68 140h3M86 140h6M128 140h9M26 141h9M47 141h9M86 141h9M131 141h3M26 142h9M47 142h9M86 142h9M131 142h3M26 143h9M47 143h9M86 143h9M131 143h3M29 144h3M47 144h6M86 144h6M29 145h3M47 145h6M86 145h6M29 146h3M47 146h6M86 146h6M29 147h6M47 147h6M86 147h6M29 148h6M47 148h6M86 148h6M29 149h6M47 149h6M86 149h6M29 150h6M47 150h9M86 150h3M29 151h6M47 151h9M86 151h3M29 152h6M47 152h9M86 152h3M29 153h6M47 153h9M149 153h3M161 153h3M29 154h6M47 154h9M149 154h3M161 154h3M29 155h6M47 155h9M149 155h3M161 155h3M29 156h6M47 156h9M158 156h6M29 157h6M47 157h9M158 157h6M29 158h6M47 158h9M158 158h6M29 159h9M47 159h6M158 159h6M29 160h9M47 160h6M158 160h6M29 161h9M47 161h6M158 161h6M29 162h9M47 162h3M155 162h6M29 163h9M47 163h3M155 163h6M29 164h9M47 164h3M155 164h6M29 165h6M155 165h6M29 166h6M155 166h6M29 167h6M155 167h6M17 168h6M17 169h6M17 170h6M14 171h3M14 172h3M14 173h3M11 174h3M11 175h3M11 176h3M8 177h3M170 177h3M8 178h3M170 178h3M8 179h3M170 179h3M8 180h6M173 180h3M8 181h6M173 181h3M8 182h6M173 182h3M8 183h3M8 184h3M8 185h3M8 186h3M8 187h3M8 188h3M8 189h3M8 190h3M8 191h3" />
<path stroke="#000000" d="M107 27h3M107 28h3M107 29h3M104 30h6M104 31h6M104 32h6M104 33h6M104 34h6M104 35h6M83 36h6M104 36h6M83 37h6M104 37h6M83 38h6M104 38h6M83 39h6M104 39h6M83 40h6M104 40h6M83 41h6M104 41h6M83 42h6M104 42h6M83 43h6M104 43h6M83 44h6M104 44h6M83 45h6M101 45h12M83 46h6M101 46h12M83 47h6M101 47h12M80 48h12M101 48h12M80 49h12M101 49h12M80 50h12M101 50h12M83 51h9M101 51h12M83 52h9M101 52h12M83 53h9M101 53h12M80 54h6M89 54h3M101 54h15M80 55h6M89 55h3M101 55h15M80 56h6M89 56h3M101 56h15M83 57h9M101 57h15M83 58h9M101 58h15M83 59h9M101 59h15M83 60h9M101 60h15M83 61h9M101 61h15M83 62h9M101 62h15M77 63h3M83 63h9M101 63h18M77 64h3M83 64h9M101 64h18M77 65h3M83 65h9M101 65h18M80 66h9M101 66h18M80 67h9M101 67h18M80 68h9M101 68h18M80 69h12M95 69h24M80 70h12M95 70h24M80 71h12M95 71h24M80 72h18M104 72h12M80 73h18M104 73h12M80 74h18M104 74h12M83 75h6M101 75h15M83 76h6M101 76h15M83 77h6M101 77h15M83 78h3M101 78h3M107 78h9M83 79h3M101 79h3M107 79h9M83 80h3M101 80h3M107 80h9M83 81h3M101 81h12M83 82h3M101 82h12M83 83h3M101 83h12M56 84h3M83 84h3M101 84h12M56 85h3M83 85h3M101 85h12M56 86h3M83 86h3M101 86h12M56 87h6M83 87h3M98 87h18M56 88h6M83 88h3M98 88h18M56 89h6M83 89h3M98 89h18M56 90h6M101 90h3M107 90h9M56 91h6M101 91h3M107 91h9M56 92h6M101 92h3M107 92h9M53 93h12M101 93h15M53 94h12M101 94h15M53 95h12M101 95h15M53 96h12M98 96h21M53 97h12M98 97h21M53 98h12M98 98h21M53 99h12M98 99h21M140 99h3M53 100h12M98 100h21M140 100h3M53 101h12M98 101h21M140 101h3M53 102h12M68 102h3M74 102h3M80 102h3M86 102h3M95 102h24M137 102h6M53 103h12M68 103h3M74 103h3M80 103h3M86 103h3M95 103h24M137 103h6M53 104h12M68 104h3M74 104h3M80 104h3M86 104h3M95 104h24M137 104h6M53 105h39M95 105h12M110 105h9M140 105h3M53 106h39M95 106h12M110 106h9M140 106h3M53 107h39M95 107h12M110 107h9M140 107h3M53 108h18M86 108h6M95 108h24M137 108h6M53 109h18M86 109h6M95 109h24M137 109h6M53 110h18M86 110h6M95 110h24M137 110h6M53 111h15M89 111h3M98 111h21M137 111h9M53 112h15M89 112h3M98 112h21M137 112h9M53 113h15M89 113h3M98 113h21M137 113h9M53 114h39M98 114h21M140 114h6M53 115h39M98 115h21M140 115h6M53 116h39M98 116h21M140 116h6M50 117h24M86 117h6M98 117h21M137 117h9M50 118h24M86 118h6M98 118h21M137 118h9M50 119h24M86 119h6M98 119h21M137 119h9M35 120h3M56 120h12M89 120h3M95 120h54M35 121h3M56 121h12M89 121h3M95 121h54M35 122h3M56 122h12M89 122h3M95 122h54M35 123h3M53 123h15M98 123h30M134 123h15M35 124h3M53 124h15M98 124h30M134 124h15M35 125h3M53 125h15M98 125h30M134 125h15M35 126h6M53 126h15M98 126h27M134 126h15M35 127h6M53 127h15M98 127h27M134 127h15M35 128h6M53 128h15M98 128h27M134 128h15M35 129h6M47 129h3M53 129h3M59 129h9M95 129h30M131 129h21M35 130h6M47 130h3M53 130h3M59 130h9M95 130h30M131 130h21M35 131h6M47 131h3M53 131h3M59 131h9M95 131h30M131 131h21M35 132h9M47 132h3M53 132h15M95 132h30M134 132h15M35 133h9M47 133h3M53 133h15M95 133h30M134 133h15M35 134h9M47 134h3M53 134h15M95 134h30M134 134h15M32 135h12M56 135h12M95 135h30M137 135h12M32 136h12M56 136h12M95 136h30M137 136h12M32 137h12M56 137h12M95 137h30M137 137h12M35 138h9M56 138h6M65 138h3M71 138h3M92 138h33M137 138h12M35 139h9M56 139h6M65 139h3M71 139h3M92 139h33M137 139h12M35 140h9M56 140h6M65 140h3M71 140h3M92 140h33M137 140h12M35 141h12M56 141h24M95 141h33M134 141h12M35 142h12M56 142h24M95 142h33M134 142h12M35 143h12M56 143h24M95 143h33M134 143h12M32 144h12M53 144h27M92 144h54M32 145h12M53 145h27M92 145h54M32 146h12M53 146h27M92 146h54M35 147h9M53 147h30M92 147h54M167 147h3M35 148h9M53 148h30M92 148h54M167 148h3M35 149h9M53 149h30M92 149h54M167 149h3M38 150h6M56 150h27M89 150h60M164 150h3M38 151h6M56 151h27M89 151h60M164 151h3M38 152h6M56 152h27M89 152h60M164 152h3M35 153h9M56 153h93M164 153h3M35 154h9M56 154h93M164 154h3M35 155h9M56 155h93M164 155h3M35 156h9M56 156h96M164 156h3M35 157h9M56 157h96M164 157h3M35 158h9M56 158h96M164 158h3M38 159h6M53 159h102M164 159h3M38 160h6M53 160h102M164 160h3M38 161h6M53 161h102M164 161h3M38 162h9M50 162h105M161 162h9M38 163h9M50 163h105M161 163h9M38 164h9M50 164h105M161 164h9M26 165h3M35 165h120M161 165h9M26 166h3M35 166h120M161 166h9M26 167h3M35 167h120M161 167h9M23 168h153M23 169h153M23 170h153M17 171h165M17 172h165M17 173h165M14 174h171M14 175h171M14 176h171M11 177h159M173 177h12M11 178h159M173 178h12M11 179h159M173 179h12M14 180h159M176 180h9M14 181h159M176 181h9M14 182h159M176 182h9M11 183h174M11 184h174M11 185h174M11 186h177M11 187h177M11 188h177M11 189h177M11 190h177M11 191h177" />
<path stroke="#b53120" d="M86 54h3M86 55h3M86 56h3M104 78h3M104 79h3M104 80h3M104 90h3M104 91h3M104 92h3M107 105h3M107 106h3M107 107h3M56 129h3M56 130h3M56 131h3M35 150h3M35 151h3M35 152h3" />
</svg>